<svg width="20" height="20" viewBox="0 0 20 20" fill="none" xmlns="http://www.w3.org/2000/svg">
  <path d="M18.3369 7.0659L13.264 6.32631L10.9967 1.72909C10.5904 0.909647 9.41332 0.89923 9.0036 1.72909L6.73624 6.32631L1.66332 7.0659C0.753597 7.19784 0.389014 8.31937 1.04874 8.96173L4.71887 12.5381L3.85082 17.5902C3.69457 18.5034 4.65638 19.1874 5.46193 18.7603L10.0001 16.3749L14.5383 18.7603C15.3439 19.184 16.3057 18.5034 16.1494 17.5902L15.2814 12.5381L18.9515 8.96173C19.6112 8.31937 19.2467 7.19784 18.3369 7.0659ZM13.4932 11.9548L14.3161 16.7603L10.0001 14.493L5.68415 16.7603L6.50707 11.9548L3.01401 8.55201L7.8404 7.85062L10.0001 3.47562L12.1598 7.85062L16.9862 8.55201L13.4932 11.9548Z" fill="#484848" />
</svg>